<svg xmlns="http://www.w3.org/2000/svg" version="1.1" xmlns:xlink="http://www.w3.org/1999/xlink" xmlns:svgjs="http://svgjs.dev/svgjs" width="2000" height="358" viewBox="0 0 2000 358"><g transform="matrix(1,0,0,1,-1.2121212121212466,-1.106688874162984)"><svg viewBox="0 0 396 71" data-background-color="#ffffff" preserveAspectRatio="xMidYMid meet" height="358" width="2000" xmlns="http://www.w3.org/2000/svg" xmlns:xlink="http://www.w3.org/1999/xlink"><g id="tight-bounds" transform="matrix(1,0,0,1,0.2400000000000091,0.21948298900997543)"><svg viewBox="0 0 395.52 70.56103402198002" height="70.56103402198002" width="395.52"><g><svg viewBox="0 0 395.52 70.56103402198002" height="70.56103402198002" width="395.52"><g><svg viewBox="0 0 488.88057362535835 87.21662314993938" height="70.56103402198002" width="395.52"><g transform="matrix(1,0,0,1,93.3605736253584,12.053816947639962)"><svg viewBox="0 0 395.52 63.108989254659456" height="63.108989254659456" width="395.52"><g id="textblocktransform"><svg viewBox="0 0 395.52 63.108989254659456" height="63.108989254659456" width="395.52" id="textblock"><g><svg viewBox="0 0 395.52 43.480442804428044" height="43.480442804428044" width="395.52"><g transform="matrix(1,0,0,1,0,0)"><svg width="395.52" viewBox="0 -35.75 325.18 35.75" height="43.480442804428044" data-palette-color="#001f3f"><path d="M33.8-2.15L38.1-2.15 38.1 0 26 0 26-13.75 12.1-13.75 12.1 0 0 0 0-2.15 4.3-2.15 4.3-34.95 12.1-34.95 12.1-20.35 26-20.35 26-34.95 33.8-34.95 33.8-2.15ZM68.25-2.15L79.4-2.15 79.4 0 38.1 0 38.1-2.15 49.25-2.15Q45.15-4.5 42.77-8.6 40.4-12.7 40.4-17.7L40.4-17.7Q40.4-25.4 45.7-30.58 51-35.75 58.75-35.75 66.5-35.75 71.8-30.58 77.1-25.4 77.1-17.7L77.1-17.7Q77.1-12.7 74.7-8.6 72.3-4.5 68.25-2.15L68.25-2.15ZM69.15-17.68Q69.15-22.35 66.15-25.65 63.15-28.95 58.77-28.95 54.4-28.95 51.4-25.65 48.4-22.35 48.4-17.68 48.4-13 51.4-9.73 54.4-6.45 58.77-6.45 63.15-6.45 66.15-9.73 69.15-13 69.15-17.68ZM115 0L115-22 105.55-2.9 100.9-2.9 91.5-22 91.5 0 78.85 0 78.85-2.15 83.7-2.15 83.7-34.95 94.25-34.95 103.25-15.75 112.3-34.95 122.8-34.95 122.8-2.15 127.65-2.15 127.65 0 115 0ZM126.54-2.15L131.39-2.15 131.39-34.95 156.59-34.95 156.59-28 139.19-28 139.19-20.8 154.84-20.8 154.84-14.15 139.19-14.15 139.19-6.9 157.14-6.9 157.14-2.15 161.99-2.15 161.99 0 126.54 0 126.54-2.15ZM159.79-2.15L172.99-2.15 172.99 0 159.79 0 159.79-2.15ZM203.44-2.15L207.99-2.15 207.99 0 172.99 0 172.99-2.15 179.29-2.15Q175.34-4.9 175.34-9.8L175.34-9.8Q175.34-15.7 182.69-19.9L182.69-19.9Q179.49-23.3 179.49-27 179.49-30.7 182.39-33.23 185.29-35.75 190.34-35.75L190.34-35.75Q194.09-35.75 197.06-33.58 200.04-31.4 200.04-27.5L200.04-27.5Q200.04-22.6 192.89-18.4L192.89-18.4Q195.14-15.55 196.89-13.65L196.89-13.65Q198.14-15.65 198.69-18.2L198.69-18.2 204.34-14.5Q203.19-11.35 201.54-8.65L201.54-8.65 205.84-4.4 203.44-2.15ZM182.59-9.98Q182.59-8.4 183.89-7.38 185.19-6.35 187.26-6.35 189.34-6.35 192.09-9L192.09-9Q188.89-12.4 186.64-15.05L186.64-15.05Q184.89-14.2 183.74-12.88 182.59-11.55 182.59-9.98ZM189.89-29.85Q188.79-29.85 187.91-29.08 187.04-28.3 187.04-26.98 187.04-25.65 189.04-23.15L189.04-23.15Q192.79-25.15 192.79-26.9L192.79-26.9Q192.79-28.35 191.89-29.1 190.99-29.85 189.89-29.85ZM198.49-2.15L196.54-4.15Q194.84-2.75 193.39-2.15L193.39-2.15 198.49-2.15ZM207.99-2.15L221.19-2.15 221.19 0 207.99 0 207.99-2.15ZM257.73-2.15L263.53-2.15 263.53 0 250.38 0 247.13-7.55 232.48-7.55 229.23 0 216.08 0 216.08-2.15 221.83-2.15 236.03-34.95 243.58-34.95 257.73-2.15ZM244.18-14.4L239.83-24.55 235.43-14.4 244.18-14.4ZM257.88-2.15L262.73-2.15 262.73-34.95 275.98-34.95Q284.13-34.95 287.61-32.2 291.08-29.45 291.08-23.35L291.08-23.35Q291.08-14.95 284.43-12.5L284.43-12.5 291.73-2.15 296.43-2.15 296.43 0 283.68 0 275.93-11.15 270.53-11.15 270.53 0 257.88 0 257.88-2.15ZM276.23-17.9Q280.23-17.9 281.68-19.2 283.13-20.5 283.13-23.33 283.13-26.15 281.63-27.2 280.13-28.25 276.38-28.25L276.38-28.25 270.53-28.25 270.53-17.9 276.23-17.9ZM313.88-2.15L325.18-2.15 325.18 0 294.78 0 294.78-2.15 306.08-2.15 306.08-28.2 296.18-28.2 296.18-34.95 323.78-34.95 323.78-28.2 313.88-28.2 313.88-2.15Z" opacity="1" transform="matrix(1,0,0,1,0,0)" fill="#001f3f" class="wordmark-text-0" data-fill-palette-color="primary" id="text-0"></path></svg></g></svg></g><g transform="matrix(1,0,0,1,75.54432,53.7451318199262)"><svg viewBox="0 0 244.43135999999998 9.363857434733257" height="9.363857434733257" width="244.43135999999998"><g transform="matrix(1,0,0,1,0,0)"><svg width="244.43135999999998" viewBox="3.25 -39.45 1057.1 40.5" height="9.363857434733257" data-palette-color="#ff908b"><path d="M7.75-36.8L18.9-36.8Q22.05-36.8 24.43-36.05 26.8-35.3 28.4-33.85 30-32.4 30.83-30.43 31.65-28.45 31.65-25.95L31.65-25.95Q31.65-23.55 30.88-21.05 30.1-18.55 28.4-16.43 26.7-14.3 23.93-12.98 21.15-11.65 17.15-11.65L17.15-11.65 12.2-11.65 10.75 0 3.25 0 7.75-36.8ZM13.05-18.7L17.7-18.7Q19.5-18.7 20.7-19.35 21.9-20 22.65-21 23.4-22 23.73-23.05 24.05-24.1 24.05-24.9L24.05-24.9Q24.05-25.75 23.7-26.9 23.35-28.05 22.3-28.93 21.25-29.8 19.1-29.8L19.1-29.8 14.4-29.8 13.05-18.7ZM35.85-21.85L42.15-21.85 41.95-17Q43.15-18.95 44.82-20.28 46.5-21.6 48.22-22.28 49.95-22.95 51.15-22.95L51.15-22.95 49.95-15.95Q47.55-16.25 45.65-15.15 43.75-14.05 42.6-12.25 41.45-10.45 41.2-8.55L41.2-8.55 40.15 0 33.2 0 35.85-21.85ZM65.25-5.35L65.25-5.35Q66.25-5.35 67.17-5.7 68.09-6.05 69.05-6.55L69.05-6.55 71.5-1.15Q69.84-0.35 68.02 0.1 66.2 0.55 64.5 0.55L64.5 0.55Q60.9 0.55 58.22-0.68 55.55-1.9 54.05-4.42 52.55-6.95 52.55-10.75L52.55-10.75Q52.55-12.7 53.27-14.8 54-16.9 55.52-18.73 57.05-20.55 59.52-21.7 62-22.85 65.5-22.85L65.5-22.85Q67.4-22.85 69.27-22.38 71.15-21.9 72.72-20.68 74.3-19.45 75.42-17.25 76.55-15.05 77-11.55L77-11.55 59.4-7.2 58.3-11.1 72-14.65 69.55-13.9Q69.15-15.6 67.97-16.5 66.8-17.4 65.25-17.4L65.25-17.4Q63.2-17.4 61.95-16.55 60.7-15.7 60.12-14.35 59.55-13 59.55-11.55L59.55-11.55Q59.55-9.05 60.47-7.7 61.4-6.35 62.72-5.85 64.05-5.35 65.25-5.35ZM83.29-21.85L89.64-21.85 89.74-17.6 89.64-18.3Q91.19-20.5 93.32-21.73 95.44-22.95 98.19-22.95L98.19-22.95Q100.84-22.95 102.47-21.93 104.09-20.9 104.34-18.6L104.34-18.6 104.24-18.55Q105.84-20.45 107.97-21.7 110.09-22.95 112.24-22.95L112.24-22.95Q115.49-22.95 117.19-21.13 118.89-19.3 118.59-16.4L118.59-16.4 116.59 0 109.64 0 111.29-13.5Q111.39-14.95 111.12-15.88 110.84-16.8 109.39-16.9L109.39-16.9Q107.69-16.9 106.39-15.73 105.09-14.55 104.29-12.73 103.49-10.9 103.24-8.95L103.24-8.95 102.14 0 95.14 0 96.79-13.5Q96.89-14.95 96.54-15.88 96.19-16.8 94.74-16.9L94.74-16.9Q93.09-16.9 91.82-15.73 90.54-14.55 89.77-12.75 88.99-10.95 88.74-9.05L88.74-9.05 87.64 0 80.64 0 83.29-21.85ZM123.79 0L126.49-21.85 133.49-21.85 130.79 0 123.79 0ZM126.94-29.55L126.94-29.55Q126.94-31.15 128.04-32.25 129.14-33.35 130.94-33.35L130.94-33.35Q132.19-33.35 133.44-32.63 134.69-31.9 134.69-30.1L134.69-30.1Q134.69-28.55 133.59-27.43 132.49-26.3 130.69-26.3L130.69-26.3Q129.44-26.3 128.19-27.03 126.94-27.75 126.94-29.55ZM144.94 1.05L144.94 1.05Q141.99 1.05 140.21-0.78 138.44-2.6 138.69-5.5L138.69-5.5 140.69-21.85 147.69-21.85 145.99-8.1Q145.94-6.65 146.46-5.78 146.99-4.9 148.54-4.9L148.54-4.9Q150.09-4.9 151.36-5.95 152.64-7 153.49-8.83 154.34-10.65 154.59-12.95L154.59-12.95 155.69-21.85 162.69-21.85 159.99 0 153.64 0 153.59-4.35 153.74-3.55Q152.84-2.2 151.51-1.15 150.19-0.1 148.54 0.48 146.89 1.05 144.94 1.05ZM169.88-21.85L176.24-21.85 176.34-17.6 176.24-18.3Q177.78-20.5 179.91-21.73 182.03-22.95 184.78-22.95L184.78-22.95Q187.44-22.95 189.06-21.93 190.69-20.9 190.94-18.6L190.94-18.6 190.84-18.55Q192.44-20.45 194.56-21.7 196.69-22.95 198.84-22.95L198.84-22.95Q202.09-22.95 203.78-21.13 205.49-19.3 205.19-16.4L205.19-16.4 203.19 0 196.24 0 197.88-13.5Q197.99-14.95 197.71-15.88 197.44-16.8 195.99-16.9L195.99-16.9Q194.28-16.9 192.99-15.73 191.69-14.55 190.88-12.73 190.09-10.9 189.84-8.95L189.84-8.95 188.74 0 181.74 0 183.38-13.5Q183.49-14.95 183.13-15.88 182.78-16.8 181.34-16.9L181.34-16.9Q179.69-16.9 178.41-15.73 177.13-14.55 176.36-12.75 175.59-10.95 175.34-9.05L175.34-9.05 174.24 0 167.24 0 169.88-21.85ZM227.48-29.65L228.38-36.8 253.18-36.8 252.28-29.65 243.48-29.65 239.83 0 232.33 0 235.98-29.65 227.48-29.65ZM252.38-21.85L258.68-21.85 258.48-17Q259.68-18.95 261.35-20.28 263.03-21.6 264.75-22.28 266.48-22.95 267.68-22.95L267.68-22.95 266.48-15.95Q264.08-16.25 262.18-15.15 260.28-14.05 259.13-12.25 257.98-10.45 257.73-8.55L257.73-8.55 256.68 0 249.73 0 252.38-21.85ZM278.18 0.5L278.18 0.5Q276.02 0.55 273.98-0.7 271.93-1.95 270.6-4.35 269.27-6.75 269.27-10.15L269.27-10.15Q269.27-12.6 270.18-14.88 271.07-17.15 272.73-18.98 274.38-20.8 276.63-21.88 278.88-22.95 281.57-22.95L281.57-22.95Q283.77-22.95 285.15-22.45 286.52-21.95 287.38-21.18 288.23-20.4 288.82-19.5L288.82-19.5 288.38-18.45 289.48-21.85 295.98-21.85 293.32 0 286.32 0 286.88-4.75 287.27-3.25Q287.18-3.25 286.57-2.68 285.98-2.1 284.85-1.35 283.73-0.6 282.05-0.03 280.38 0.55 278.18 0.5ZM282.13-5.1L282.13-5.1Q283.13-5.1 284.05-5.48 284.98-5.85 285.82-6.58 286.68-7.3 287.32-8.4L287.32-8.4 287.98-13.75Q287.73-14.85 287.02-15.63 286.32-16.4 285.27-16.82 284.23-17.25 282.88-17.25L282.88-17.25Q281.18-17.25 279.98-16.65 278.77-16.05 278-15.1 277.23-14.15 276.88-13.08 276.52-12 276.52-11L276.52-11Q276.52-9.2 277.23-7.88 277.93-6.55 279.2-5.83 280.48-5.1 282.13-5.1ZM310.92 0.6L310.92 0.6Q307.82 0.6 305.37-0.85 302.92-2.3 301.55-4.73 300.17-7.15 300.17-10L300.17-10Q300.17-12.3 301-14.58 301.82-16.85 303.5-18.75 305.17-20.65 307.62-21.8 310.07-22.95 313.27-22.95L313.27-22.95Q315.92-22.95 317.97-22 320.02-21.05 321.12-19.7L321.12-19.7 319.92-18.1 322.52-39.45 329.47-39.45 324.62 0 317.62 0 318.17-4.25 318.52-2.75Q316.67-1.35 314.9-0.38 313.12 0.6 310.92 0.6ZM313.12-5.3L313.12-5.3Q314.22-5.3 315.2-5.68 316.17-6.05 317.07-6.78 317.97-7.5 318.72-8.6L318.72-8.6 319.37-13.95Q319.12-15.05 318.37-15.83 317.62-16.6 316.5-17.03 315.37-17.45 313.97-17.45L313.97-17.45Q312.02-17.45 310.52-16.68 309.02-15.9 308.2-14.48 307.37-13.05 307.37-11.05L307.37-11.05Q307.37-9.3 308.07-8 308.77-6.7 310.07-6 311.37-5.3 313.12-5.3ZM331.82 0L334.52-21.85 341.52-21.85 338.82 0 331.82 0ZM334.97-29.55L334.97-29.55Q334.97-31.15 336.07-32.25 337.17-33.35 338.97-33.35L338.97-33.35Q340.22-33.35 341.47-32.63 342.72-31.9 342.72-30.1L342.72-30.1Q342.72-28.55 341.62-27.43 340.52-26.3 338.72-26.3L338.72-26.3Q337.47-26.3 336.22-27.03 334.97-27.75 334.97-29.55ZM350.57-21.95L351.72-31.45 358.72-31.45 357.57-21.95 362.87-21.95 362.22-16.5 356.92-16.5 354.92 0 347.92 0 349.92-16.5 346.52-16.5 347.17-21.95 350.57-21.95ZM365.71 0L368.41-21.85 375.41-21.85 372.71 0 365.71 0ZM368.86-29.55L368.86-29.55Q368.86-31.15 369.96-32.25 371.06-33.35 372.86-33.35L372.86-33.35Q374.11-33.35 375.36-32.63 376.61-31.9 376.61-30.1L376.61-30.1Q376.61-28.55 375.51-27.43 374.41-26.3 372.61-26.3L372.61-26.3Q371.36-26.3 370.11-27.03 368.86-27.75 368.86-29.55ZM391.61 0.6L391.61 0.6Q389.66 0.6 387.56-0.03 385.46-0.65 383.64-1.95 381.81-3.25 380.69-5.3 379.56-7.35 379.56-10.2L379.56-10.2Q379.56-12.2 380.24-14.4 380.91-16.6 382.41-18.53 383.91-20.45 386.41-21.65 388.91-22.85 392.51-22.85L392.51-22.85Q395.46-22.85 398.19-21.63 400.91-20.4 402.69-18 404.46-15.6 404.46-12.05L404.46-12.05Q404.46-10.8 404.11-9.13 403.76-7.45 402.91-5.75 402.06-4.05 400.61-2.63 399.16-1.2 396.94-0.3 394.71 0.6 391.61 0.6ZM391.81-5.15L391.81-5.15Q393.96-5.15 395.16-6.25 396.36-7.35 396.86-8.9 397.36-10.45 397.36-11.75L397.36-11.75Q397.36-13.5 396.79-14.58 396.21-15.65 395.36-16.2 394.51-16.75 393.66-16.95 392.81-17.15 392.26-17.15L392.26-17.15Q390.21-17.15 388.96-16.07 387.71-15 387.16-13.45 386.61-11.9 386.61-10.55L386.61-10.55Q386.61-8.3 387.54-7.15 388.46-6 389.69-5.58 390.91-5.15 391.81-5.15ZM411.26-21.85L417.61-21.85 417.76-17.5 417.51-18.3Q418.91-20.35 421.23-21.63 423.56-22.9 426.61-22.9L426.61-22.9Q429.71-22.9 431.53-21.08 433.36-19.25 433.11-16.35L433.11-16.35 431.11 0 424.11 0 425.81-13.75Q425.91-15.2 425.28-16.07 424.66-16.95 422.96-16.95L422.96-16.95Q421.36-16.95 420.03-15.9 418.71-14.85 417.86-13.05 417.01-11.25 416.71-8.9L416.71-8.9 415.61 0 408.61 0 411.26-21.85ZM446.86 0.5L446.86 0.5Q444.71 0.55 442.66-0.7 440.61-1.95 439.28-4.35 437.96-6.75 437.96-10.15L437.96-10.15Q437.96-12.6 438.86-14.88 439.76-17.15 441.41-18.98 443.06-20.8 445.31-21.88 447.56-22.95 450.26-22.95L450.26-22.95Q452.46-22.95 453.83-22.45 455.21-21.95 456.06-21.18 456.91-20.4 457.51-19.5L457.51-19.5 457.06-18.45 458.16-21.85 464.66-21.85 462.01 0 455.01 0 455.56-4.75 455.96-3.25Q455.86-3.25 455.26-2.68 454.66-2.1 453.53-1.35 452.41-0.6 450.73-0.03 449.06 0.55 446.86 0.5ZM450.81-5.1L450.81-5.1Q451.81-5.1 452.73-5.48 453.66-5.85 454.51-6.58 455.36-7.3 456.01-8.4L456.01-8.4 456.66-13.75Q456.41-14.85 455.71-15.63 455.01-16.4 453.96-16.82 452.91-17.25 451.56-17.25L451.56-17.25Q449.86-17.25 448.66-16.65 447.46-16.05 446.68-15.1 445.91-14.15 445.56-13.08 445.21-12 445.21-11L445.21-11Q445.21-9.2 445.91-7.88 446.61-6.55 447.88-5.83 449.16-5.1 450.81-5.1ZM469.25 0L474.05-39.45 481.05-39.45 476.25 0 469.25 0ZM507 0.5L507 0.5Q504.85 0.55 502.8-0.7 500.75-1.95 499.42-4.35 498.1-6.75 498.1-10.15L498.1-10.15Q498.1-12.6 499-14.88 499.9-17.15 501.55-18.98 503.2-20.8 505.45-21.88 507.7-22.95 510.4-22.95L510.4-22.95Q512.6-22.95 513.97-22.45 515.35-21.95 516.2-21.18 517.05-20.4 517.65-19.5L517.65-19.5 517.2-18.45 518.3-21.85 524.8-21.85 522.15 0 515.15 0 515.7-4.75 516.1-3.25Q516-3.25 515.4-2.68 514.8-2.1 513.67-1.35 512.55-0.6 510.87-0.03 509.2 0.55 507 0.5ZM510.95-5.1L510.95-5.1Q511.95-5.1 512.87-5.48 513.8-5.85 514.65-6.58 515.5-7.3 516.15-8.4L516.15-8.4 516.8-13.75Q516.55-14.85 515.85-15.63 515.15-16.4 514.1-16.82 513.05-17.25 511.7-17.25L511.7-17.25Q510-17.25 508.8-16.65 507.6-16.05 506.82-15.1 506.05-14.15 505.7-13.08 505.35-12 505.35-11L505.35-11Q505.35-9.2 506.05-7.88 506.75-6.55 508.02-5.83 509.3-5.1 510.95-5.1ZM532.05-21.85L538.4-21.85 538.55-17.5 538.3-18.3Q539.7-20.35 542.02-21.63 544.35-22.9 547.4-22.9L547.4-22.9Q550.5-22.9 552.32-21.08 554.15-19.25 553.9-16.35L553.9-16.35 551.9 0 544.9 0 546.6-13.75Q546.7-15.2 546.07-16.07 545.45-16.95 543.75-16.95L543.75-16.95Q542.15-16.95 540.82-15.9 539.5-14.85 538.65-13.05 537.8-11.25 537.5-8.9L537.5-8.9 536.4 0 529.4 0 532.05-21.85ZM569.49 0.6L569.49 0.6Q566.39 0.6 563.94-0.85 561.49-2.3 560.12-4.73 558.74-7.15 558.74-10L558.74-10Q558.74-12.3 559.57-14.58 560.39-16.85 562.07-18.75 563.74-20.65 566.19-21.8 568.64-22.95 571.84-22.95L571.84-22.95Q574.49-22.95 576.54-22 578.59-21.05 579.69-19.7L579.69-19.7 578.49-18.1 581.09-39.45 588.04-39.45 583.19 0 576.19 0 576.74-4.25 577.09-2.75Q575.24-1.35 573.47-0.38 571.69 0.6 569.49 0.6ZM571.69-5.3L571.69-5.3Q572.79-5.3 573.77-5.68 574.74-6.05 575.64-6.78 576.54-7.5 577.29-8.6L577.29-8.6 577.94-13.95Q577.69-15.05 576.94-15.83 576.19-16.6 575.07-17.03 573.94-17.45 572.54-17.45L572.54-17.45Q570.59-17.45 569.09-16.68 567.59-15.9 566.77-14.48 565.94-13.05 565.94-11.05L565.94-11.05Q565.94-9.3 566.64-8 567.34-6.7 568.64-6 569.94-5.3 571.69-5.3ZM615.99-21.65L613.34 0 606.34 0 611.04-38.3 611.09-38.3 627.99-9.3 624.99-10 648.84-38.3 648.94-38.3 644.24 0 636.99 0 639.69-21.95 639.69-18.2 625.04-0.5 624.94-0.5 614.34-18.2 615.99-21.65ZM664.49 0.6L664.49 0.6Q662.54 0.6 660.44-0.03 658.34-0.65 656.51-1.95 654.69-3.25 653.56-5.3 652.44-7.35 652.44-10.2L652.44-10.2Q652.44-12.2 653.11-14.4 653.79-16.6 655.29-18.53 656.79-20.45 659.29-21.65 661.79-22.85 665.39-22.85L665.39-22.85Q668.34-22.85 671.06-21.63 673.79-20.4 675.56-18 677.34-15.6 677.34-12.05L677.34-12.05Q677.34-10.8 676.99-9.13 676.64-7.45 675.79-5.75 674.94-4.05 673.49-2.63 672.04-1.2 669.81-0.3 667.59 0.6 664.49 0.6ZM664.69-5.15L664.69-5.15Q666.84-5.15 668.04-6.25 669.24-7.35 669.74-8.9 670.24-10.45 670.24-11.75L670.24-11.75Q670.24-13.5 669.66-14.58 669.09-15.65 668.24-16.2 667.39-16.75 666.54-16.95 665.69-17.15 665.14-17.15L665.14-17.15Q663.09-17.15 661.84-16.07 660.59-15 660.04-13.45 659.49-11.9 659.49-10.55L659.49-10.55Q659.49-8.3 660.41-7.15 661.34-6 662.56-5.58 663.79-5.15 664.69-5.15ZM691.83 0.6L691.83 0.6Q688.73 0.6 686.28-0.85 683.83-2.3 682.46-4.73 681.08-7.15 681.08-10L681.08-10Q681.08-12.3 681.91-14.58 682.73-16.85 684.41-18.75 686.08-20.65 688.53-21.8 690.98-22.95 694.18-22.95L694.18-22.95Q696.83-22.95 698.88-22 700.93-21.05 702.03-19.7L702.03-19.7 700.83-18.1 703.43-39.45 710.38-39.45 705.53 0 698.53 0 699.08-4.25 699.43-2.75Q697.58-1.35 695.81-0.38 694.03 0.6 691.83 0.6ZM694.03-5.3L694.03-5.3Q695.13-5.3 696.11-5.68 697.08-6.05 697.98-6.78 698.88-7.5 699.63-8.6L699.63-8.6 700.28-13.95Q700.03-15.05 699.28-15.83 698.53-16.6 697.41-17.03 696.28-17.45 694.88-17.45L694.88-17.45Q692.93-17.45 691.43-16.68 689.93-15.9 689.11-14.48 688.28-13.05 688.28-11.05L688.28-11.05Q688.28-9.3 688.98-8 689.68-6.7 690.98-6 692.28-5.3 694.03-5.3ZM725.13-5.35L725.13-5.35Q726.13-5.35 727.06-5.7 727.98-6.05 728.93-6.55L728.93-6.55 731.38-1.15Q729.73-0.35 727.91 0.1 726.08 0.55 724.38 0.55L724.38 0.55Q720.78 0.55 718.11-0.68 715.43-1.9 713.93-4.42 712.43-6.95 712.43-10.75L712.43-10.75Q712.43-12.7 713.16-14.8 713.88-16.9 715.41-18.73 716.93-20.55 719.41-21.7 721.88-22.85 725.38-22.85L725.38-22.85Q727.28-22.85 729.16-22.38 731.03-21.9 732.61-20.68 734.18-19.45 735.31-17.25 736.43-15.05 736.88-11.55L736.88-11.55 719.28-7.2 718.18-11.1 731.88-14.65 729.43-13.9Q729.03-15.6 727.86-16.5 726.68-17.4 725.13-17.4L725.13-17.4Q723.08-17.4 721.83-16.55 720.58-15.7 720.01-14.35 719.43-13 719.43-11.55L719.43-11.55Q719.43-9.05 720.36-7.7 721.28-6.35 722.61-5.85 723.93-5.35 725.13-5.35ZM743.18-21.85L749.48-21.85 749.28-17Q750.48-18.95 752.15-20.28 753.83-21.6 755.55-22.28 757.28-22.95 758.48-22.95L758.48-22.95 757.28-15.95Q754.88-16.25 752.98-15.15 751.08-14.05 749.93-12.25 748.78-10.45 748.53-8.55L748.53-8.55 747.48 0 740.53 0 743.18-21.85ZM763.88-21.85L770.23-21.85 770.38-17.5 770.13-18.3Q771.53-20.35 773.85-21.63 776.18-22.9 779.23-22.9L779.23-22.9Q782.33-22.9 784.15-21.08 785.98-19.25 785.73-16.35L785.73-16.35 783.73 0 776.73 0 778.43-13.75Q778.53-15.2 777.9-16.07 777.28-16.95 775.58-16.95L775.58-16.95Q773.98-16.95 772.65-15.9 771.33-14.85 770.48-13.05 769.63-11.25 769.33-8.9L769.33-8.9 768.23 0 761.23 0 763.88-21.85ZM808.02-29.65L808.92-36.8 833.72-36.8 832.82-29.65 824.02-29.65 820.37 0 812.87 0 816.52-29.65 808.02-29.65ZM835.22 0L837.92-21.85 844.92-21.85 842.22 0 835.22 0ZM838.37-29.55L838.37-29.55Q838.37-31.15 839.47-32.25 840.57-33.35 842.37-33.35L842.37-33.35Q843.62-33.35 844.87-32.63 846.12-31.9 846.12-30.1L846.12-30.1Q846.12-28.55 845.02-27.43 843.92-26.3 842.12-26.3L842.12-26.3Q840.87-26.3 839.62-27.03 838.37-27.75 838.37-29.55ZM849.47 0L854.27-39.45 861.27-39.45 856.47 0 849.47 0ZM876.06-5.35L876.06-5.35Q877.06-5.35 877.99-5.7 878.91-6.05 879.86-6.55L879.86-6.55 882.31-1.15Q880.66-0.35 878.84 0.1 877.01 0.55 875.31 0.55L875.31 0.55Q871.71 0.55 869.04-0.68 866.36-1.9 864.86-4.42 863.36-6.95 863.36-10.75L863.36-10.75Q863.36-12.7 864.09-14.8 864.81-16.9 866.34-18.73 867.86-20.55 870.34-21.7 872.81-22.85 876.31-22.85L876.31-22.85Q878.21-22.85 880.09-22.38 881.96-21.9 883.54-20.68 885.11-19.45 886.24-17.25 887.36-15.05 887.81-11.55L887.81-11.55 870.21-7.2 869.11-11.1 882.81-14.65 880.36-13.9Q879.96-15.6 878.79-16.5 877.61-17.4 876.06-17.4L876.06-17.4Q874.01-17.4 872.76-16.55 871.51-15.7 870.94-14.35 870.36-13 870.36-11.55L870.36-11.55Q870.36-9.05 871.29-7.7 872.21-6.35 873.54-5.85 874.86-5.35 876.06-5.35ZM921.81 0L907.41 0 911.91-36.8 924.91-36.8Q929.86-36.8 933.13-35.15 936.41-33.5 938.21-30.75 940.01-28 940.63-24.6 941.26-21.2 940.86-17.75L940.86-17.75Q940.41-13.65 938.68-10.38 936.96-7.1 934.33-4.78 931.71-2.45 928.48-1.23 925.26 0 921.81 0L921.81 0ZM918.31-29.85L915.51-7 921.41-7Q923.86-7 925.93-7.73 928.01-8.45 929.58-9.85 931.16-11.25 932.16-13.38 933.16-15.5 933.46-18.25L933.46-18.25Q933.91-21.85 933.01-24.13 932.11-26.4 930.51-27.65 928.91-28.9 927.18-29.38 925.46-29.85 924.21-29.85L924.21-29.85 918.31-29.85ZM957.16-5.35L957.16-5.35Q958.16-5.35 959.08-5.7 960.01-6.05 960.96-6.55L960.96-6.55 963.41-1.15Q961.76-0.35 959.93 0.1 958.11 0.55 956.41 0.55L956.41 0.55Q952.81 0.55 950.13-0.68 947.46-1.9 945.96-4.42 944.46-6.95 944.46-10.75L944.46-10.75Q944.46-12.7 945.18-14.8 945.91-16.9 947.43-18.73 948.96-20.55 951.43-21.7 953.91-22.85 957.41-22.85L957.41-22.85Q959.31-22.85 961.18-22.38 963.06-21.9 964.63-20.68 966.21-19.45 967.33-17.25 968.46-15.05 968.91-11.55L968.91-11.55 951.31-7.2 950.21-11.1 963.91-14.65 961.46-13.9Q961.06-15.6 959.88-16.5 958.71-17.4 957.16-17.4L957.16-17.4Q955.11-17.4 953.86-16.55 952.61-15.7 952.03-14.35 951.46-13 951.46-11.55L951.46-11.55Q951.46-9.05 952.38-7.7 953.31-6.35 954.63-5.85 955.96-5.35 957.16-5.35ZM988.4-6L991.35-1.4Q989.85-0.45 987.78 0.1 985.7 0.65 983.7 0.65L983.7 0.65Q982.35 0.65 980.4 0.23 978.45-0.2 976.55-1.33 974.65-2.45 973.38-4.53 972.1-6.6 972.1-9.85L972.1-9.85Q972.1-12 972.85-14.2 973.6-16.4 975.1-18.25 976.6-20.1 978.9-21.23 981.2-22.35 984.35-22.35L984.35-22.35Q987.7-22.35 989.98-21.35 992.25-20.35 993.7-18.9L993.7-18.9 989.75-14.65Q989.1-15.3 987.85-15.95 986.6-16.6 984.8-16.6L984.8-16.6Q983.35-16.6 982.05-15.8 980.75-15 979.95-13.6 979.15-12.2 979.15-10.35L979.15-10.35Q979.15-8.85 979.85-7.65 980.55-6.45 981.85-5.73 983.15-5 984.95-5L984.95-5Q985.95-5 986.83-5.25 987.7-5.5 988.4-6L988.4-6ZM1005.3 0.5L1005.3 0.5Q1003.15 0.55 1001.1-0.7 999.05-1.95 997.73-4.35 996.4-6.75 996.4-10.15L996.4-10.15Q996.4-12.6 997.3-14.88 998.2-17.15 999.85-18.98 1001.5-20.8 1003.75-21.88 1006-22.95 1008.7-22.95L1008.7-22.95Q1010.9-22.95 1012.28-22.45 1013.65-21.95 1014.5-21.18 1015.35-20.4 1015.95-19.5L1015.95-19.5 1015.5-18.45 1016.6-21.85 1023.1-21.85 1020.45 0 1013.45 0 1014-4.75 1014.4-3.25Q1014.3-3.25 1013.7-2.68 1013.1-2.1 1011.98-1.35 1010.85-0.6 1009.18-0.03 1007.5 0.55 1005.3 0.5ZM1009.25-5.1L1009.25-5.1Q1010.25-5.1 1011.18-5.48 1012.1-5.85 1012.95-6.58 1013.8-7.3 1014.45-8.4L1014.45-8.4 1015.1-13.75Q1014.85-14.85 1014.15-15.63 1013.45-16.4 1012.4-16.82 1011.35-17.25 1010-17.25L1010-17.25Q1008.3-17.25 1007.1-16.65 1005.9-16.05 1005.13-15.1 1004.35-14.15 1004-13.08 1003.65-12 1003.65-11L1003.65-11Q1003.65-9.2 1004.35-7.88 1005.05-6.55 1006.33-5.83 1007.6-5.1 1009.25-5.1ZM1027.7 0L1032.5-39.45 1039.5-39.45 1034.7 0 1027.7 0ZM1049.6 0.45L1049.6 0.45Q1048.7 0.45 1047.05 0.18 1045.4-0.1 1043.57-1 1041.75-1.9 1040.35-3.75L1040.35-3.75 1043.7-7.4Q1045.05-5.9 1046.15-5.25 1047.25-4.6 1048.12-4.48 1049-4.35 1049.55-4.35L1049.55-4.35Q1051.1-4.35 1051.55-5 1052-5.65 1052-6.2L1052-6.2Q1052-6.95 1051.37-7.43 1050.75-7.9 1049.77-8.25 1048.8-8.6 1047.75-9L1047.75-9Q1045.15-10 1044.02-11.65 1042.9-13.3 1042.9-15.25L1042.9-15.25Q1042.9-16.25 1043.27-17.53 1043.65-18.8 1044.57-20 1045.5-21.2 1047.17-22 1048.85-22.8 1051.5-22.8L1051.5-22.8Q1053-22.8 1054.52-22.58 1056.05-22.35 1057.52-21.73 1059-21.1 1060.35-19.95L1060.35-19.95 1057.2-16Q1056.15-17.05 1055.02-17.6 1053.9-18.15 1052.6-18.15L1052.6-18.15Q1051.65-18.15 1051.1-17.88 1050.55-17.6 1050.3-17.15 1050.05-16.7 1050.05-16.2L1050.05-16.2Q1050.05-15.4 1050.8-14.9 1051.55-14.4 1052.62-14.05 1053.7-13.7 1054.75-13.25L1054.75-13.25Q1056.25-12.65 1057.3-11.75 1058.35-10.85 1058.82-9.63 1059.3-8.4 1059.1-6.75L1059.1-6.75Q1058.95-5.3 1058.25-3.98 1057.55-2.65 1056.37-1.65 1055.2-0.65 1053.5-0.1 1051.8 0.45 1049.6 0.45Z" opacity="1" transform="matrix(1,0,0,1,0,0)" fill="#ff908b" class="slogan-text-1" data-fill-palette-color="secondary" id="text-1"></path></svg></g></svg></g></svg></g></svg></g><g><svg viewBox="0 0 83.09588460986025 87.21662314993938" height="87.21662314993938" width="83.09588460986025"><g><svg xmlns="http://www.w3.org/2000/svg" xmlns:xlink="http://www.w3.org/1999/xlink" version="1.1" x="0" y="0" viewBox="18 17.974999999999998 61 64.025" style="enable-background:new 0 0 100 100;" xml:space="preserve" height="87.21662314993938" width="83.09588460986025" class="icon-icon-0" data-fill-palette-color="accent" id="icon-0"><path d="M46.5 79.5c9.6 0 18.4-4.8 23.7-12.7C71.5 82 72.9 82 74 82c1.2 0 2.7 0 4-18.1 0.6-8.5 0.9-17.1 1-19.9 0 0 0 0 0 0 0 0 0 0 0 0 0-0.2 0-0.4 0-0.5 0-3.6 0-8.5-5-8.5s-5 4.9-5 8.5c0 0.1 0 0.3 0 0.5 0 0 0 0 0 0 0 0 0 0 0 0 0 0.3 0 0.6 0 0.9-0.7-0.1-1.5-0.1-2.2-0.2-3.4-0.2-7.2-0.5-10.1-3.4-2.9-2.9-3.2-6.7-3.5-10.1-0.4-4.3-0.7-8.7-6.7-8.7C30.8 22.5 18 35.3 18 51S30.8 79.5 46.5 79.5zM74 79.4c-1.4-4-2.5-20.7-2.9-30.4h5.7C76.5 58.7 75.4 75.4 74 79.4zM76.9 47h-5.9c0-0.7 0-1.4 0-2h6C77 45.6 77 46.3 76.9 47zM74 37c2.3 0 3 1.3 3 6h-6C71 38.3 71.7 37 74 37zM46.5 24.5c4 0 4.3 2.2 4.7 6.8 0.3 3.6 0.7 8 4.1 11.4 3.4 3.4 7.8 3.8 11.3 4 0.9 0.1 1.7 0.1 2.4 0.2 0.1 3.9 0.4 10.2 0.9 16.4-4.6 8.7-13.6 14.1-23.4 14.1C31.9 77.5 20 65.6 20 51S31.9 24.5 46.5 24.5z" fill="#111111" data-fill-palette-color="accent"></path><path d="M38 41c2.8 0 5-2.2 5-5s-2.2-5-5-5-5 2.2-5 5S35.2 41 38 41zM38 33c1.7 0 3 1.3 3 3s-1.3 3-3 3-3-1.3-3-3S36.3 33 38 33z" fill="#111111" data-fill-palette-color="accent"></path><path d="M35 47c0-2.8-2.2-5-5-5s-5 2.2-5 5 2.2 5 5 5S35 49.8 35 47zM27 47c0-1.7 1.3-3 3-3s3 1.3 3 3-1.3 3-3 3S27 48.7 27 47z" fill="#111111" data-fill-palette-color="accent"></path><path d="M33 56c-2.8 0-5 2.2-5 5s2.2 5 5 5 5-2.2 5-5S35.8 56 33 56zM33 64c-1.7 0-3-1.3-3-3s1.3-3 3-3 3 1.3 3 3S34.7 64 33 64z" fill="#111111" data-fill-palette-color="accent"></path><path d="M39 70c0 2.8 2.2 5 5 5s5-2.2 5-5-2.2-5-5-5S39 67.2 39 70zM44 67c1.7 0 3 1.3 3 3s-1.3 3-3 3-3-1.3-3-3S42.3 67 44 67z" fill="#111111" data-fill-palette-color="accent"></path><path d="M71.5 23.3c-1.1 1-2.5 2.3-2.5 4.7 0 2.8 2.2 5 5 5s5-2.2 5-5c0-2.3 0-6.5-4.4-9.8-0.3-0.3-0.8-0.3-1.1 0s-0.5 0.7-0.4 1.1C73.5 21.4 72.7 22.2 71.5 23.3zM72.8 24.8c0.9-0.8 1.9-1.8 2.3-3.4C77 23.7 77 26.3 77 28c0 1.7-1.3 3-3 3s-3-1.3-3-3C71 26.4 71.8 25.7 72.8 24.8z" fill="#111111" data-fill-palette-color="accent"></path></svg></g></svg></g></svg></g></svg></g><defs></defs></svg><rect width="395.52" height="70.56103402198002" fill="none" stroke="none" visibility="hidden"></rect></g></svg></g></svg>